<?xml version="1.0" encoding="UTF-8" standalone="no"?>
<svg
   xmlns:dc="http://purl.org/dc/elements/1.1/"
   xmlns:cc="http://creativecommons.org/ns#"
   xmlns:rdf="http://www.w3.org/1999/02/22-rdf-syntax-ns#"
   xmlns:svg="http://www.w3.org/2000/svg"
   xmlns="http://www.w3.org/2000/svg"
   xmlns:sodipodi="http://sodipodi.sourceforge.net/DTD/sodipodi-0.dtd"
   xmlns:inkscape="http://www.inkscape.org/namespaces/inkscape"
   viewBox="-1.89 2.11 104.7533 37.380474"
   width="104.7533"
   height="37.380474"
   version="1.1"
   id="svg20"
   sodipodi:docname="onnx-logo.svg"
   inkscape:version="0.92.3 (2405546, 2018-03-11)">
  <metadata
     id="metadata26">
    <rdf:RDF>
      <cc:Work
         rdf:about="">
        <dc:format>image/svg+xml</dc:format>
        <dc:type
           rdf:resource="http://purl.org/dc/dcmitype/StillImage" />
        <dc:title></dc:title>
      </cc:Work>
    </rdf:RDF>
  </metadata>
  <defs
     id="defs24" />
  <sodipodi:namedview
     pagecolor="#ffffff"
     bordercolor="#666666"
     borderopacity="1"
     objecttolerance="10"
     gridtolerance="10"
     guidetolerance="10"
     inkscape:pageopacity="0"
     inkscape:pageshadow="2"
     inkscape:window-width="758"
     inkscape:window-height="480"
     id="namedview22"
     showgrid="false"
     fit-margin-top="0"
     fit-margin-left="0"
     fit-margin-right="0"
     fit-margin-bottom="0"
     inkscape:zoom="2.85"
     inkscape:cx="52.377012"
     inkscape:cy="18.696174"
     inkscape:window-x="67"
     inkscape:window-y="27"
     inkscape:window-maximized="0"
     inkscape:current-layer="svg20" />
  <g
     transform="matrix(1.506702,0,0,1.506702,-16.905113,-37.42086)"
     id="g16">
    <path
       d="m 34.35,37.89 c -0.11,0.008 -0.2,-0.056 -0.25,-0.156 l -4.08,-7.547 c -0.052,-0.085 -0.062,-0.19 -0.026,-0.282 a 1.03,1.03 0 0 0 -1.577,-1.172 0.42,0.42 0 0 1 -0.373,0.076 L 20.02,27.2 c -0.124,-0.008 -0.228,-0.1 -0.253,-0.22 -0.393,-1.334 -2.395,-0.714 -1.965,0.61 0.045,0.116 0.024,0.247 -0.054,0.344 l -6.367,9.134 c -0.086,0.124 -0.17,0.177 -0.297,0.13 -0.545,-0.047 -1.032,0.342 -1.106,0.884 a 1.01,1.01 0 0 0 0.878,1.161 c 0.125,0.004 0.232,0.092 0.26,0.215 l 3.427,8.44 c 0.04,0.09 0.048,0.194 0.02,0.3 -0.295,0.965 0.83,1.735 1.622,1.11 a 0.36,0.36 0 0 1 0.277,-0.081 l 10.325,1.008 a 0.27,0.27 0 0 1 0.262,0.18 c 0.588,1.344 2.585,0.31 1.825,-0.947 -0.064,-0.088 -0.065,-0.207 -0.003,-0.296 l 5.21,-9.045 a 0.28,0.28 0 0 1 0.273,-0.169 c 1.392,0.016 1.4,-2.08 -0.003,-2.06 z m -15.943,-8.153 0.292,-1.26 c 0.024,-0.106 0.057,-0.17 0.194,-0.178 0.258,-0.013 0.498,-0.138 0.657,-0.343 0.064,-0.1 0.182,-0.126 0.285,-0.086 l 8.065,1.61 c 0.022,0.004 0.043,0.015 0.125,0.046 l -2.538,1.1 -7.653,3.333 a 5.27,5.27 0 0 1 -0.117,0.049 c -0.082,0.033 -0.16,0.11 -0.254,0.03 -0.088,-0.075 -0.023,-0.157 -0.005,-0.234 l 0.95,-4.078 z m -0.58,-0.706 0.042,0.028 -1.085,4.644 c -0.015,0.108 -0.095,0.197 -0.2,0.222 a 0.97,0.97 0 0 0 -0.709,0.87 c 10e-4,0.102 -0.052,0.198 -0.14,0.25 l -3.438,2.023 c -0.028,0.01 -0.057,0.016 -0.086,0.02 z m -2.715,18.12 c -0.013,0.064 -0.03,0.128 -0.05,0.2 l -3.293,-8.098 a 0.35,0.35 0 0 1 0.054,-0.428 0.77,0.77 0 0 0 0.191,-0.59 c -0.02,-0.135 0.057,-0.266 0.183,-0.316 l 3.765,-2.22 c 0.07,-0.042 0.14,-0.138 0.244,-0.04 0.093,0.088 0.22,0.13 0.197,0.314 l -0.338,2.903 -0.954,8.282 z m 1.177,0.64 a 0.78,0.78 0 0 0 -0.397,-0.263 c -0.093,-0.03 -0.156,-0.067 -0.125,-0.155 l 0.295,-2.574 0.59,-5.126 0.408,-3.586 c 0.025,-0.237 0.2,-0.23 0.34,-0.317 0.14,-0.087 0.186,0.043 0.25,0.1 l 8.542,7.42 c 0.185,0.192 0.132,0.508 -0.105,0.63 l -9.52,3.928 c -0.113,0.047 -0.19,0.06 -0.28,-0.056 z m 11.145,1.35 c -0.078,0.035 -0.144,0.092 -0.19,0.164 -0.132,0.277 -0.36,0.243 -0.6,0.22 l -9.884,-0.975 -0.016,-0.046 1.534,-0.638 8.02,-3.31 c 0.15,-0.063 0.244,-0.008 0.384,0.04 0.4,0.14 0.408,0.45 0.444,0.777 l 0.402,3.533 c 0.012,0.1 0.01,0.177 -0.095,0.232 z m -0.34,-6.506 c -0.016,0.126 -0.075,0.162 -0.175,0.208 -0.1,0.046 -0.222,0.023 -0.292,-0.064 L 24.575,40.994 18.071,35.34 a 0.71,0.71 0 0 1 -0.174,-0.625 c 0.044,-0.09 0.153,-0.1 0.236,-0.136 L 28,30.28 c 0.144,-0.065 0.256,-0.1 0.367,0.054 a 0.48,0.48 0 0 0 0.207,0.143 c 0.097,0.04 0.137,0.092 0.115,0.157 l -0.286,2.18 -1.298,9.823 z m 1.122,6.285 -0.16,-1.304 -0.288,-2.5 c -0.028,-0.23 -0.047,-0.42 0.196,-0.6 a 0.88,0.88 0 0 0 0.328,-0.863 c -0.01,-0.095 -0.008,-0.155 0.077,-0.213 L 33.2,40.15 c 0.025,-0.008 0.05,-0.014 0.075,-0.018 z m 5.248,-10.49 a 0.75,0.75 0 0 0 -0.122,0.582 0.27,0.27 0 0 1 -0.141,0.31 l -5.178,3.547 c -0.057,0.04 -0.104,0.112 -0.2,0.058 -0.105,-0.06 -0.067,-0.146 -0.057,-0.223 l 1.572,-11.888 c 0.012,-0.088 0.032,-0.174 0.06,-0.32 l 0.935,1.717 3.127,5.783 c 0.103,0.125 0.106,0.306 0.006,0.434 z"
       id="path2"
       inkscape:connector-curvature="0"
       style="fill:#343433" />
    <path
       d="M 28.678,30.633 C 28.7,30.569 28.66,30.515 28.563,30.476 a 0.48,0.48 0 0 1 -0.207,-0.143 c -0.11,-0.153 -0.223,-0.12 -0.367,-0.054 l -1.534,0.67 q -4.16,1.813 -8.322,3.627 c -0.082,0.036 -0.192,0.044 -0.236,0.135 a 0.711,0.711 0 0 0 0.174,0.625 l 8.556,7.44 a 0.237,0.237 0 0 0 0.292,0.064 c 0.1,-0.046 0.16,-0.08 0.175,-0.208 l 0.652,-4.936 q 0.324,-2.443 0.645,-4.887 l 0.286,-2.18 z"
       id="path4"
       inkscape:connector-curvature="0"
       style="fill:#fefefe" />
    <path
       d="m 26.194,43.288 q -4.27,-3.71 -8.542,-7.42 c -0.066,-0.057 -0.12,-0.188 -0.25,-0.1 -0.13,0.088 -0.314,0.08 -0.34,0.317 l -0.408,3.586 -0.59,5.126 -0.295,2.574 c -0.032,0.088 0.032,0.126 0.125,0.155 a 0.781,0.781 0 0 1 0.397,0.263 c 0.088,0.116 0.165,0.102 0.28,0.056 q 4.76,-1.966 9.52,-3.927 a 0.397,0.397 0 0 0 0.105,-0.629 z"
       id="path6"
       inkscape:connector-curvature="0"
       style="fill:#f4f5f6" />
    <path
       d="m 30.33,32.213 -0.935,-1.717 -0.06,0.32 -0.53,4.056 q -0.52,3.916 -1.04,7.832 c -0.01,0.077 -0.048,0.164 0.057,0.223 0.096,0.054 0.142,-0.02 0.2,-0.058 L 33.2,39.322 a 0.27,0.27 0 0 0 0.141,-0.31 0.749,0.749 0 0 1 0.122,-0.582 0.346,0.346 0 0 0 -0.006,-0.434 q -1.57,-2.89 -3.127,-5.783 z"
       id="path8"
       inkscape:connector-curvature="0"
       style="fill:#dedfdf" />
    <path
       d="m 17.462,34.048 c 0.095,0.08 0.172,0.003 0.255,-0.03 l 0.117,-0.05 q 3.827,-1.666 7.653,-3.333 l 2.538,-1.1 -0.125,-0.046 q -4.033,-0.805 -8.066,-1.612 a 0.243,0.243 0 0 0 -0.285,0.086 0.885,0.885 0 0 1 -0.657,0.343 c -0.138,0.01 -0.17,0.072 -0.194,0.178 q -0.144,0.63 -0.292,1.26 l -0.95,4.078 c -0.018,0.077 -0.083,0.16 0.005,0.234 z m 9.666,11.327 c -0.036,-0.327 -0.045,-0.638 -0.444,-0.777 -0.14,-0.05 -0.233,-0.104 -0.384,-0.04 q -4.008,1.66 -8.02,3.3 l -1.534,0.638 0.016,0.046 9.884,0.975 c 0.24,0.024 0.467,0.058 0.6,-0.22 a 0.435,0.435 0 0 1 0.189,-0.164 c 0.105,-0.056 0.107,-0.13 0.095,-0.232 a 542.666,542.666 0 0 1 -0.402,-3.533 z"
       id="path10"
       inkscape:connector-curvature="0"
       style="fill:#d1d1d1" />
    <path
       d="M 16.405,35.964 C 16.428,35.779 16.3,35.738 16.208,35.65 16.106,35.552 16.035,35.648 15.964,35.69 l -3.765,2.22 a 0.295,0.295 0 0 0 -0.183,0.316 0.769,0.769 0 0 1 -0.191,0.59 0.351,0.351 0 0 0 -0.054,0.428 q 1.073,2.62 2.133,5.243 l 1.16,2.856 a 1.954,1.954 0 0 0 0.05,-0.19 q 0.236,-2.032 0.47,-4.065 0.243,-2.108 0.484,-4.217 l 0.338,-2.903 z"
       id="path12"
       inkscape:connector-curvature="0"
       style="fill:#d8d8d8" />
    <path
       d="m 28.372,43.45 c -0.086,0.06 -0.088,0.118 -0.077,0.213 a 0.881,0.881 0 0 1 -0.328,0.862 c -0.243,0.17 -0.224,0.36 -0.196,0.6 l 0.288,2.5 0.16,1.304 5.06,-8.79 a 0.503,0.503 0 0 0 -0.075,0.018 q -2.414,1.652 -4.828,3.302 z m -12.64,-8.408 a 0.286,0.286 0 0 0 0.141,-0.25 0.971,0.971 0 0 1 0.709,-0.87 0.265,0.265 0 0 0 0.201,-0.222 q 0.54,-2.322 1.085,-4.644 l -0.042,-0.028 -5.618,8.056 a 0.475,0.475 0 0 0 0.086,-0.019 q 1.718,-1.012 3.438,-2.023 z"
       id="path14"
       inkscape:connector-curvature="0"
       style="fill:#b2b2b2" />
  </g>
  <path
     d="m 87.307012,12.678302 c -0.18,-0.05 -0.367,-0.06 -0.55,-0.03 -0.43,0.078 -0.55,0.212 -0.55,0.642 v 12.854 l -0.15,-0.215 -7.63,-11.385 a 13.05,13.05 0 0 0 -1.013,-1.438 c -0.19,-0.254 -0.475,-0.423 -0.8,-0.468 -0.383,-0.033 -0.818,0.08 -0.817,0.514 l 0.005,15.126 a 0.46,0.46 0 0 0 0.079,0.296 c 0.17,0.226 0.645,0.32 1.01,0.2 0.308,-0.1 0.393,-0.236 0.393,-0.63 v -12.852 l 0.123,0.176 8.076,11.956 a 6.85,6.85 0 0 0 0.82,1.101 c 0.252,0.275 0.644,0.372 0.995,0.247 0.244,-0.04 0.41,-0.267 0.378,-0.512 v -15.076 c 0.036,-0.246 -0.137,-0.473 -0.383,-0.504 z m -16.488,0.002 a 1.28,1.28 0 0 0 -0.574,-0.029 c -0.41,0.082 -0.528,0.215 -0.528,0.634 v 12.863 l -0.155,-0.222 -7.964,-11.89 a 7.42,7.42 0 0 0 -0.679,-0.937 c -0.19,-0.233 -0.452,-0.394 -0.746,-0.458 -0.56,-0.098 -0.85,0.132 -0.85,0.688 v 14.9 a 0.5,0.5 0 0 0 0.082,0.342 c 0.18,0.22 0.653,0.312 1.016,0.2 0.303,-0.102 0.376,-0.226 0.376,-0.638 v -12.516 a 0.52,0.52 0 0 1 0.02,-0.259 c 0.08,0.028 0.1,0.104 0.14,0.16 l 8.404,12.435 c 0.152,0.238 0.334,0.454 0.542,0.645 a 0.91,0.91 0 0 0 0.926,0.171 c 0.23,-0.052 0.384,-0.265 0.362,-0.5 l -0.003,-15.104 c 0.036,-0.238 -0.132,-0.458 -0.37,-0.486 z m -15.918,7.992 -0.004,-3.647 c -0.035,-1.85 -0.997,-3.228 -2.74,-3.87 -1.87,-0.688 -3.8,-0.702 -5.698,-0.213 -2.264,0.58 -3.368,2.07 -3.368,4.403 v 7.103 c 0,1.93 0.984,3.383 2.803,4.02 1.875,0.66 3.792,0.658 5.7,0.155 1.933,-0.51 3.272,-1.842 3.305,-4.16 l 0.003,-3.792 z m -1.473,0.135 v 3.383 c 0,1.975 -0.88,3.107 -2.802,3.527 -1.26,0.296 -2.58,0.245 -3.814,-0.147 -1.434,-0.47 -2.226,-1.55 -2.234,-3.06 v -7.42 c 0.008,-1.567 0.876,-2.702 2.4,-3.115 1.416,-0.414 2.926,-0.38 4.322,0.096 1.377,0.48 2.13,1.58 2.137,3.04 l 10e-4,3.698 z m 49.211998,7.033 -4.827998,-6.93 c -0.1,-0.104 -0.103,-0.268 -0.006,-0.374 l 4.719998,-6.83 a 3.23,3.23 0 0 0 0.256,-0.407 c 0.124,-0.207 0.035,-0.477 -0.19,-0.57 a 0.92,0.92 0 0 0 -1.18,0.205 5.9,5.9 0 0 0 -0.407,0.539 l -4.205998,6.158 -0.103,-0.135 -3.319,-4.892 -1.097,-1.588 c -0.215,-0.34 -0.632,-0.49 -1.015,-0.37 -0.505,0.127 -0.617,0.417 -0.32,0.85 l 4.85,7.06 a 0.24,0.24 0 0 1 -0.005,0.331 l -4.875,7.043 c -0.264,0.384 -0.182,0.646 0.245,0.832 0.465,0.202 0.8,0.08 1.14,-0.42 l 4.485,-6.556 0.08,0.09 4.403998,6.4 c 0.095,0.15 0.21,0.286 0.34,0.406 0.332,0.24 0.787,0.21 1.088,-0.066 0.236,-0.215 0.225,-0.37 -0.06,-0.78 z"
     id="path18"
     inkscape:connector-curvature="0"
     style="fill:#343433" />
</svg>
